<?xml version="1.0" encoding="UTF-8" standalone="no"?>
<!-- Created with Inkscape (http://www.inkscape.org/) -->

<svg
   version="1.1"
   id="svg2"
   width="1573"
   height="1573"
   viewBox="0 0 1573 1573"
   xmlns="http://www.w3.org/2000/svg"
   xmlns:svg="http://www.w3.org/2000/svg">
  <defs
     id="defs6" />
  <g
     id="g8">
    <path
       style="fill:#ffffff"
       d="M 78.22043,1496.4117 7.2247301,1425.4106 328.72253,1103.9117 650.22033,782.41275 328.72163,460.9129 7.2229301,139.41304 78.47233,68.163634 149.72173,-3.0857842 471.22163,318.4129 792.72143,639.91158 1114.2213,318.4129 1435.7211,-3.0857842 l 71.2494,71.2494182 71.2494,71.249406 -321.4986,321.49986 -321.49869,321.49985 321.49869,321.49985 321.4986,321.4998 -71.2494,71.2494 -71.2494,71.2494 -321.4998,-321.4986 -321.49987,-321.49868 -321.2505,321.24938 c -176.6879,176.6872 -321.4766,321.2494 -321.7527,321.2494 -0.2761,0 -32.4501,-31.9505 -71.4978,-71.001 z"
       id="path293" />
  </g>
</svg>
